<svg width="4853" height="2460" xmlns="http://www.w3.org/2000/svg" xmlns:xlink="http://www.w3.org/1999/xlink" overflow="hidden"><defs><clipPath id="clip0"><rect x="-3" y="-3" width="4853" height="2460"/></clipPath><clipPath id="clip1"><rect x="1992" y="1602" width="349" height="617"/></clipPath><clipPath id="clip2"><rect x="2340" y="1602" width="601" height="617"/></clipPath><clipPath id="clip3"><rect x="2940" y="1602" width="551" height="617"/></clipPath><clipPath id="clip4"><rect x="3490" y="1602" width="499" height="617"/></clipPath><clipPath id="clip5"><rect x="1992" y="1735" width="349" height="617"/></clipPath><clipPath id="clip6"><rect x="2340" y="1735" width="601" height="617"/></clipPath><clipPath id="clip7"><rect x="2940" y="1735" width="551" height="617"/></clipPath><clipPath id="clip8"><rect x="3490" y="1735" width="499" height="617"/></clipPath><clipPath id="clip9"><rect x="1992" y="1869" width="349" height="617"/></clipPath><clipPath id="clip10"><rect x="2340" y="1869" width="601" height="617"/></clipPath><clipPath id="clip11"><rect x="2940" y="1869" width="551" height="617"/></clipPath><clipPath id="clip12"><rect x="3490" y="1869" width="499" height="617"/></clipPath><clipPath id="clip13"><rect x="52" y="-31" width="349" height="617"/></clipPath><clipPath id="clip14"><rect x="400" y="-31" width="600" height="617"/></clipPath><clipPath id="clip15"><rect x="999" y="-31" width="552" height="617"/></clipPath><clipPath id="clip16"><rect x="1550" y="-31" width="731" height="617"/></clipPath><clipPath id="clip17"><rect x="52" y="103" width="349" height="617"/></clipPath><clipPath id="clip18"><rect x="400" y="103" width="600" height="617"/></clipPath><clipPath id="clip19"><rect x="999" y="103" width="552" height="617"/></clipPath><clipPath id="clip20"><rect x="1550" y="103" width="731" height="617"/></clipPath><clipPath id="clip21"><rect x="52" y="237" width="349" height="617"/></clipPath><clipPath id="clip22"><rect x="400" y="237" width="600" height="617"/></clipPath><clipPath id="clip23"><rect x="999" y="237" width="552" height="617"/></clipPath><clipPath id="clip24"><rect x="1550" y="237" width="731" height="617"/></clipPath><clipPath id="clip25"><rect x="52" y="1602" width="349" height="617"/></clipPath><clipPath id="clip26"><rect x="400" y="1602" width="232" height="617"/></clipPath><clipPath id="clip27"><rect x="631" y="1602" width="552" height="617"/></clipPath><clipPath id="clip28"><rect x="1182" y="1602" width="498" height="617"/></clipPath><clipPath id="clip29"><rect x="52" y="1735" width="349" height="617"/></clipPath><clipPath id="clip30"><rect x="400" y="1735" width="232" height="617"/></clipPath><clipPath id="clip31"><rect x="631" y="1735" width="552" height="617"/></clipPath><clipPath id="clip32"><rect x="1182" y="1735" width="498" height="617"/></clipPath><clipPath id="clip33"><rect x="52" y="1869" width="349" height="617"/></clipPath><clipPath id="clip34"><rect x="400" y="1869" width="232" height="617"/></clipPath><clipPath id="clip35"><rect x="631" y="1869" width="552" height="617"/></clipPath><clipPath id="clip36"><rect x="1182" y="1869" width="498" height="617"/></clipPath><clipPath id="clip37"><rect x="52" y="919" width="518" height="617"/></clipPath><clipPath id="clip38"><rect x="569" y="919" width="538" height="617"/></clipPath><clipPath id="clip39"><rect x="1422" y="919" width="537" height="617"/></clipPath><clipPath id="clip40"><rect x="1422" y="919" width="537" height="617"/></clipPath><clipPath id="clip41"><rect x="2278" y="919" width="560" height="617"/></clipPath><clipPath id="clip42"><rect x="2278" y="919" width="560" height="617"/></clipPath></defs><g clip-path="url(#clip0)" transform="translate(3 3)"><path d="M1952.5 1701.16C1952.5 1671.52 1976.52 1647.5 2006.16 1647.5L3998.84 1647.5C4028.48 1647.5 4052.5 1671.52 4052.5 1701.16L4052.5 2259.84C4052.5 2289.48 4028.48 2313.5 3998.84 2313.5L2006.16 2313.5C1976.52 2313.5 1952.5 2289.48 1952.5 2259.84Z" stroke="#000000" stroke-width="6.875" stroke-miterlimit="8" fill="#99DDFF" fill-rule="evenodd" fill-opacity="0.301961"/><path d="M1992.76 1849.57 2340.85 1849.57 2340.85 1983.4 1992.76 1983.4Z" fill="#FFFFFF" fill-rule="evenodd"/><path d="M2340.85 1849.57 2940.23 1849.57 2940.23 1983.4 2340.85 1983.4Z" fill="#FFFFFF" fill-rule="evenodd"/><path d="M2940.23 1849.57 3490.99 1849.57 3490.99 1983.4 2940.23 1983.4Z" fill="#FFFFFF" fill-rule="evenodd"/><path d="M3490.99 1849.57 3988.12 1849.57 3988.12 1983.4 3490.99 1983.4Z" fill="#FFFFFF" fill-rule="evenodd"/><path d="M1992.76 1983.4 2340.85 1983.4 2340.85 2117.24 1992.76 2117.24Z" fill="#FFFFFF" fill-rule="evenodd"/><path d="M2340.85 1983.4 2940.23 1983.4 2940.23 2117.24 2340.85 2117.24Z" fill="#FFFFFF" fill-rule="evenodd"/><path d="M2940.23 1983.4 3490.99 1983.4 3490.99 2117.24 2940.23 2117.24Z" fill="#FFFFFF" fill-rule="evenodd"/><path d="M3490.99 1983.4 3988.12 1983.4 3988.12 2117.24 3490.99 2117.24Z" fill="#FFFFFF" fill-rule="evenodd"/><path d="M1992.76 2117.24 2340.85 2117.24 2340.85 2251.07 1992.76 2251.07Z" fill="#FFFFFF" fill-rule="evenodd"/><path d="M2340.85 2117.24 2940.23 2117.24 2940.23 2251.07 2340.85 2251.07Z" fill="#FFFFFF" fill-rule="evenodd"/><path d="M2940.23 2117.24 3490.99 2117.24 3490.99 2251.07 2940.23 2251.07Z" fill="#FFFFFF" fill-rule="evenodd"/><path d="M3490.99 2117.24 3988.12 2117.24 3988.12 2251.07 3490.99 2251.07Z" fill="#FFFFFF" fill-rule="evenodd"/><path d="M1992.76 1847.28 1992.76 2253.36" stroke="#99DDFF" stroke-width="4.58333" stroke-linejoin="round" stroke-miterlimit="10" fill="none" fill-rule="evenodd"/><path d="M3988.12 1847.28 3988.12 2253.36" stroke="#99DDFF" stroke-width="4.58333" stroke-linejoin="round" stroke-miterlimit="10" fill="none" fill-rule="evenodd"/><path d="M1990.47 1849.57 3990.41 1849.57" stroke="#99DDFF" stroke-width="4.58333" stroke-linejoin="round" stroke-miterlimit="10" fill="none" fill-rule="evenodd"/><path d="M1990.47 2251.07 3990.41 2251.07" stroke="#99DDFF" stroke-width="4.58333" stroke-linejoin="round" stroke-miterlimit="10" fill="none" fill-rule="evenodd"/><g clip-path="url(#clip1)"><text font-family="Calibri,Calibri_MSFontService,sans-serif" font-weight="700" font-size="73" transform="matrix(1 0 0 1 2025.76 1935)">n_comp</text></g><text font-family="Calibri,Calibri_MSFontService,sans-serif" font-weight="700" font-size="73" transform="matrix(1 0 0 1 2271.18 1935)">:</text><g clip-path="url(#clip2)"><text font-family="Calibri,Calibri_MSFontService,sans-serif" font-weight="400" font-size="73" transform="matrix(1 0 0 1 2373.85 1935)">20, 30, 50</text></g><g clip-path="url(#clip3)"><text font-family="Calibri,Calibri_MSFontService,sans-serif" font-weight="700" font-size="73" transform="matrix(1 0 0 1 2973.23 1935)">method</text></g><text font-family="Calibri,Calibri_MSFontService,sans-serif" font-weight="700" font-size="73" transform="matrix(1 0 0 1 3212.78 1935)">_name<tspan font-size="73" x="208.542" y="0">:</tspan></text><g clip-path="url(#clip4)"><text font-family="Calibri,Calibri_MSFontService,sans-serif" font-weight="400" font-size="73" transform="matrix(1 0 0 1 3523.99 1935)">s</text></g><text font-family="Calibri,Calibri_MSFontService,sans-serif" font-weight="400" font-size="73" transform="matrix(1 0 0 1 3552.63 1935)">canpy<tspan font-size="73" x="169.675" y="0">, rapids</tspan></text><g clip-path="url(#clip5)"><text font-family="Calibri,Calibri_MSFontService,sans-serif" font-weight="700" font-size="73" transform="matrix(1 0 0 1 2025.76 2069)">n_hvg</text></g><text font-family="Calibri,Calibri_MSFontService,sans-serif" font-weight="700" font-size="73" transform="matrix(1 0 0 1 2209.53 2069)">:</text><g clip-path="url(#clip6)"><text font-family="Calibri,Calibri_MSFontService,sans-serif" font-weight="400" font-size="73" transform="matrix(1 0 0 1 2373.85 2069)">1000, 1500, 2000</text></g><g clip-path="url(#clip7)"><text font-family="Calibri,Calibri_MSFontService,sans-serif" font-weight="700" font-size="73" transform="matrix(1 0 0 1 2973.23 2069)">d</text></g><text font-family="Calibri,Calibri_MSFontService,sans-serif" font-weight="700" font-size="73" transform="matrix(1 0 0 1 3012.76 2069)">_cluster<tspan font-size="73" x="240.625" y="0">:</tspan></text><g clip-path="url(#clip8)"><text font-family="Calibri,Calibri_MSFontService,sans-serif" font-weight="400" font-size="73" transform="matrix(1 0 0 1 3523.99 2069)">-</text></g><text font-family="Calibri,Calibri_MSFontService,sans-serif" font-weight="400" font-size="73" transform="matrix(1 0 0 1 3546.33 2069)">2, <tspan font-size="73" x="72.1875" y="0">-</tspan>1, 0, 1, 2</text><g clip-path="url(#clip9)"><text font-family="Calibri,Calibri_MSFontService,sans-serif" font-weight="700" font-size="73" transform="matrix(1 0 0 1 2025.76 2203)">n</text></g><text font-family="Calibri,Calibri_MSFontService,sans-serif" font-weight="700" font-size="73" transform="matrix(1 0 0 1 2065.3 2203)">_neigh<tspan font-size="73" x="205.104" y="0">:</tspan></text><g clip-path="url(#clip10)"><text font-family="Calibri,Calibri_MSFontService,sans-serif" font-weight="400" font-size="73" transform="matrix(1 0 0 1 2373.85 2203)">10, 15, 20, 30</text></g><g clip-path="url(#clip11)"><text font-family="Calibri,Calibri_MSFontService,sans-serif" font-weight="700" font-size="73" transform="matrix(1 0 0 1 2973.23 2203)">f</text></g><text font-family="Calibri,Calibri_MSFontService,sans-serif" font-weight="700" font-size="73" transform="matrix(1 0 0 1 2996.72 2203)">ilter:</text><g clip-path="url(#clip12)"><text font-family="Calibri,Calibri_MSFontService,sans-serif" font-weight="400" font-size="73" transform="matrix(1 0 0 1 3523.99 2203)">manual</text></g><text font-family="Calibri,Calibri_MSFontService,sans-serif" font-weight="700" font-size="92" transform="matrix(1 0 0 1 2594.37 1771)">params: pipelines<tspan font-size="92" x="671.733" y="0">-</tspan><tspan font-size="92" x="699.806" y="0">py</tspan></text><path d="M0.499836 54.2392C0.499836 24.5598 24.5597 0.499836 54.239 0.499836L2272.76 0.499836C2302.44 0.499836 2326.5 24.5598 2326.5 54.2392L2326.5 613.761C2326.5 643.44 2302.44 667.5 2272.76 667.5L54.239 667.5C24.5597 667.5 0.499836 643.44 0.499836 613.761Z" stroke="#000000" stroke-width="6.875" stroke-miterlimit="8" fill="#99DDFF" fill-rule="evenodd" fill-opacity="0.301961"/><path d="M52.1457 217.118 400.227 217.118 400.227 350.951 52.1457 350.951Z" fill="#FFFFFF" fill-rule="evenodd"/><path d="M400.227 217.118 999.613 217.118 999.613 350.951 400.227 350.951Z" fill="#FFFFFF" fill-rule="evenodd"/><path d="M999.613 217.118 1550.37 217.118 1550.37 350.951 999.613 350.951Z" fill="#FFFFFF" fill-rule="evenodd"/><path d="M1550.37 217.118 2280.63 217.118 2280.63 350.951 1550.37 350.951Z" fill="#FFFFFF" fill-rule="evenodd"/><path d="M52.1457 350.951 400.227 350.951 400.227 484.785 52.1457 484.785Z" fill="#FFFFFF" fill-rule="evenodd"/><path d="M400.227 350.951 999.613 350.951 999.613 484.785 400.227 484.785Z" fill="#FFFFFF" fill-rule="evenodd"/><path d="M999.613 350.951 1550.37 350.951 1550.37 484.785 999.613 484.785Z" fill="#FFFFFF" fill-rule="evenodd"/><path d="M1550.37 350.951 2280.63 350.951 2280.63 484.785 1550.37 484.785Z" fill="#FFFFFF" fill-rule="evenodd"/><path d="M52.1457 484.785 400.227 484.785 400.227 618.618 52.1457 618.618Z" fill="#FFFFFF" fill-rule="evenodd"/><path d="M400.227 484.785 999.613 484.785 999.613 618.618 400.227 618.618Z" fill="#FFFFFF" fill-rule="evenodd"/><path d="M999.613 484.785 1550.37 484.785 1550.37 618.618 999.613 618.618Z" fill="#FFFFFF" fill-rule="evenodd"/><path d="M1550.37 484.785 2280.63 484.785 2280.63 618.618 1550.37 618.618Z" fill="#FFFFFF" fill-rule="evenodd"/><path d="M52.1457 214.826 52.1457 620.91" stroke="#99DDFF" stroke-width="4.58333" stroke-linejoin="round" stroke-miterlimit="10" fill="none" fill-rule="evenodd"/><path d="M2280.63 214.826 2280.63 620.91" stroke="#99DDFF" stroke-width="4.58333" stroke-linejoin="round" stroke-miterlimit="10" fill="none" fill-rule="evenodd"/><path d="M49.854 217.118 2282.92 217.118" stroke="#99DDFF" stroke-width="4.58333" stroke-linejoin="round" stroke-miterlimit="10" fill="none" fill-rule="evenodd"/><path d="M49.854 618.618 2282.92 618.618" stroke="#99DDFF" stroke-width="4.58333" stroke-linejoin="round" stroke-miterlimit="10" fill="none" fill-rule="evenodd"/><g clip-path="url(#clip13)"><text font-family="Calibri,Calibri_MSFontService,sans-serif" font-weight="700" font-size="73" transform="matrix(1 0 0 1 85.1457 303)">n_comp</text></g><text font-family="Calibri,Calibri_MSFontService,sans-serif" font-weight="700" font-size="73" transform="matrix(1 0 0 1 330.56 303)">:</text><g clip-path="url(#clip14)"><text font-family="Calibri,Calibri_MSFontService,sans-serif" font-weight="400" font-size="73" transform="matrix(1 0 0 1 433.227 303)">20, 30, 50</text></g><g clip-path="url(#clip15)"><text font-family="Calibri,Calibri_MSFontService,sans-serif" font-weight="700" font-size="73" transform="matrix(1 0 0 1 1032.61 303)">method</text></g><text font-family="Calibri,Calibri_MSFontService,sans-serif" font-weight="700" font-size="73" transform="matrix(1 0 0 1 1272.16 303)">_name<tspan font-size="73" x="208.542" y="0">:</tspan></text><g clip-path="url(#clip16)"><text font-family="Calibri,Calibri_MSFontService,sans-serif" font-weight="400" font-size="73" transform="matrix(1 0 0 1 1583.37 303)">seurat</text></g><text font-family="Calibri,Calibri_MSFontService,sans-serif" font-weight="400" font-size="73" transform="matrix(1 0 0 1 1770.23 303)">, <tspan font-size="73" x="34.9479" y="0">osca</tspan><tspan font-size="73" x="167.819" y="0">, scrapper</tspan></text><g clip-path="url(#clip17)"><text font-family="Calibri,Calibri_MSFontService,sans-serif" font-weight="700" font-size="73" transform="matrix(1 0 0 1 85.1457 436)">n_hvg</text></g><text font-family="Calibri,Calibri_MSFontService,sans-serif" font-weight="700" font-size="73" transform="matrix(1 0 0 1 268.914 436)">:</text><g clip-path="url(#clip18)"><text font-family="Calibri,Calibri_MSFontService,sans-serif" font-weight="400" font-size="73" transform="matrix(1 0 0 1 433.227 436)">1000, 1500, 2000</text></g><g clip-path="url(#clip19)"><text font-family="Calibri,Calibri_MSFontService,sans-serif" font-weight="700" font-size="73" transform="matrix(1 0 0 1 1032.61 436)">d</text></g><text font-family="Calibri,Calibri_MSFontService,sans-serif" font-weight="700" font-size="73" transform="matrix(1 0 0 1 1072.14 436)">_cluster<tspan font-size="73" x="240.625" y="0">:</tspan></text><g clip-path="url(#clip20)"><text font-family="Calibri,Calibri_MSFontService,sans-serif" font-weight="400" font-size="73" transform="matrix(1 0 0 1 1583.37 436)">-</text></g><text font-family="Calibri,Calibri_MSFontService,sans-serif" font-weight="400" font-size="73" transform="matrix(1 0 0 1 1605.71 436)">2, <tspan font-size="73" x="72.1875" y="0">-</tspan>1, 0, 1, 2</text><g clip-path="url(#clip21)"><text font-family="Calibri,Calibri_MSFontService,sans-serif" font-weight="700" font-size="73" transform="matrix(1 0 0 1 85.1457 570)">n</text></g><text font-family="Calibri,Calibri_MSFontService,sans-serif" font-weight="700" font-size="73" transform="matrix(1 0 0 1 124.677 570)">_neigh<tspan font-size="73" x="205.104" y="0">:</tspan></text><g clip-path="url(#clip22)"><text font-family="Calibri,Calibri_MSFontService,sans-serif" font-weight="400" font-size="73" transform="matrix(1 0 0 1 433.227 570)">10, 15, 20, 30</text></g><g clip-path="url(#clip23)"><text font-family="Calibri,Calibri_MSFontService,sans-serif" font-weight="700" font-size="73" transform="matrix(1 0 0 1 1032.61 570)">f</text></g><text font-family="Calibri,Calibri_MSFontService,sans-serif" font-weight="700" font-size="73" transform="matrix(1 0 0 1 1056.1 570)">ilter:</text><g clip-path="url(#clip24)"><text font-family="Calibri,Calibri_MSFontService,sans-serif" font-weight="400" font-size="73" transform="matrix(1 0 0 1 1583.37 570)">m</text></g><text font-family="Calibri,Calibri_MSFontService,sans-serif" font-weight="400" font-size="73" transform="matrix(1 0 0 1 1641.81 570)">anual, auto<tspan font-weight="700" font-size="92" x="-845.116" y="-431">params: pipelines</tspan><tspan font-weight="700" font-size="92" x="-173.383" y="-431">-</tspan><tspan font-weight="700" font-size="92" x="-145.31" y="-431">r</tspan></text><path d="M0.499836 1686.24C0.499836 1656.56 24.5601 1632.5 54.24 1632.5L1669.76 1632.5C1699.44 1632.5 1723.5 1656.56 1723.5 1686.24L1723.5 2245.76C1723.5 2275.44 1699.44 2299.5 1669.76 2299.5L54.24 2299.5C24.5601 2299.5 0.499836 2275.44 0.499836 2245.76Z" stroke="#000000" stroke-width="6.875" stroke-miterlimit="8" fill="#99DDFF" fill-rule="evenodd" fill-opacity="0.301961"/><path d="M52.1046 1849.57 400.186 1849.57 400.186 1983.4 52.1046 1983.4Z" fill="#FFFFFF" fill-rule="evenodd"/><path d="M400.186 1849.57 631.759 1849.57 631.759 1983.4 400.186 1983.4Z" fill="#FFFFFF" fill-rule="evenodd"/><path d="M631.759 1849.57 1182.52 1849.57 1182.52 1983.4 631.759 1983.4Z" fill="#FFFFFF" fill-rule="evenodd"/><path d="M1182.52 1849.57 1679.65 1849.57 1679.65 1983.4 1182.52 1983.4Z" fill="#FFFFFF" fill-rule="evenodd"/><path d="M52.1046 1983.4 400.186 1983.4 400.186 2117.24 52.1046 2117.24Z" fill="#FFFFFF" fill-rule="evenodd"/><path d="M400.186 1983.4 631.759 1983.4 631.759 2117.24 400.186 2117.24Z" fill="#FFFFFF" fill-rule="evenodd"/><path d="M631.759 1983.4 1182.52 1983.4 1182.52 2117.24 631.759 2117.24Z" fill="#FFFFFF" fill-rule="evenodd"/><path d="M1182.52 1983.4 1679.65 1983.4 1679.65 2117.24 1182.52 2117.24Z" fill="#FFFFFF" fill-rule="evenodd"/><path d="M52.1046 2117.24 400.186 2117.24 400.186 2251.07 52.1046 2251.07Z" fill="#FFFFFF" fill-rule="evenodd"/><path d="M400.186 2117.24 631.759 2117.24 631.759 2251.07 400.186 2251.07Z" fill="#FFFFFF" fill-rule="evenodd"/><path d="M631.759 2117.24 1182.52 2117.24 1182.52 2251.07 631.759 2251.07Z" fill="#FFFFFF" fill-rule="evenodd"/><path d="M1182.52 2117.24 1679.65 2117.24 1679.65 2251.07 1182.52 2251.07Z" fill="#FFFFFF" fill-rule="evenodd"/><path d="M52.1046 1847.28 52.1046 2253.36" stroke="#99DDFF" stroke-width="4.58333" stroke-linejoin="round" stroke-miterlimit="10" fill="none" fill-rule="evenodd"/><path d="M1679.65 1847.28 1679.65 2253.36" stroke="#99DDFF" stroke-width="4.58333" stroke-linejoin="round" stroke-miterlimit="10" fill="none" fill-rule="evenodd"/><path d="M49.8129 1849.57 1681.94 1849.57" stroke="#99DDFF" stroke-width="4.58333" stroke-linejoin="round" stroke-miterlimit="10" fill="none" fill-rule="evenodd"/><path d="M49.8129 2251.07 1681.94 2251.07" stroke="#99DDFF" stroke-width="4.58333" stroke-linejoin="round" stroke-miterlimit="10" fill="none" fill-rule="evenodd"/><g clip-path="url(#clip25)"><text font-family="Calibri,Calibri_MSFontService,sans-serif" font-weight="700" font-size="73" transform="matrix(1 0 0 1 85.1046 1935)">n_comp</text></g><text font-family="Calibri,Calibri_MSFontService,sans-serif" font-weight="700" font-size="73" transform="matrix(1 0 0 1 330.519 1935)">:</text><g clip-path="url(#clip26)"><text font-family="Calibri,Calibri_MSFontService,sans-serif" font-weight="400" font-size="73" transform="matrix(1 0 0 1 433.186 1935)">30</text></g><g clip-path="url(#clip27)"><text font-family="Calibri,Calibri_MSFontService,sans-serif" font-weight="700" font-size="73" transform="matrix(1 0 0 1 664.759 1935)">method</text></g><text font-family="Calibri,Calibri_MSFontService,sans-serif" font-weight="700" font-size="73" transform="matrix(1 0 0 1 904.307 1935)">_name<tspan font-size="73" x="208.542" y="0">:</tspan></text><g clip-path="url(#clip28)"><text font-family="Calibri,Calibri_MSFontService,sans-serif" font-weight="400" font-size="73" transform="matrix(1 0 0 1 1215.52 1935)">rapids</text></g><g clip-path="url(#clip29)"><text font-family="Calibri,Calibri_MSFontService,sans-serif" font-weight="700" font-size="73" transform="matrix(1 0 0 1 85.1046 2069)">n_hvg</text></g><text font-family="Calibri,Calibri_MSFontService,sans-serif" font-weight="700" font-size="73" transform="matrix(1 0 0 1 268.873 2069)">:</text><g clip-path="url(#clip30)"><text font-family="Calibri,Calibri_MSFontService,sans-serif" font-weight="400" font-size="73" transform="matrix(1 0 0 1 433.186 2069)">1000</text></g><g clip-path="url(#clip31)"><text font-family="Calibri,Calibri_MSFontService,sans-serif" font-weight="700" font-size="73" transform="matrix(1 0 0 1 664.759 2069)">d</text></g><text font-family="Calibri,Calibri_MSFontService,sans-serif" font-weight="700" font-size="73" transform="matrix(1 0 0 1 704.29 2069)">_cluster<tspan font-size="73" x="240.625" y="0">:</tspan></text><g clip-path="url(#clip32)"><text font-family="Calibri,Calibri_MSFontService,sans-serif" font-weight="400" font-size="73" transform="matrix(1 0 0 1 1215.52 2069)">-</text></g><text font-family="Calibri,Calibri_MSFontService,sans-serif" font-weight="400" font-size="73" transform="matrix(1 0 0 1 1237.86 2069)">2, <tspan font-size="73" x="72.1875" y="0">-</tspan>1, 0, 1, 2</text><g clip-path="url(#clip33)"><text font-family="Calibri,Calibri_MSFontService,sans-serif" font-weight="700" font-size="73" transform="matrix(1 0 0 1 85.1046 2203)">n</text></g><text font-family="Calibri,Calibri_MSFontService,sans-serif" font-weight="700" font-size="73" transform="matrix(1 0 0 1 124.636 2203)">_neigh<tspan font-size="73" x="205.104" y="0">:</tspan></text><g clip-path="url(#clip34)"><text font-family="Calibri,Calibri_MSFontService,sans-serif" font-weight="400" font-size="73" transform="matrix(1 0 0 1 433.186 2203)">20</text></g><g clip-path="url(#clip35)"><text font-family="Calibri,Calibri_MSFontService,sans-serif" font-weight="700" font-size="73" transform="matrix(1 0 0 1 664.759 2203)">f</text></g><text font-family="Calibri,Calibri_MSFontService,sans-serif" font-weight="700" font-size="73" transform="matrix(1 0 0 1 688.249 2203)">ilter:</text><g clip-path="url(#clip36)"><text font-family="Calibri,Calibri_MSFontService,sans-serif" font-weight="400" font-size="73" transform="matrix(1 0 0 1 1215.52 2203)">manual</text></g><text font-family="Calibri,Calibri_MSFontService,sans-serif" font-weight="700" font-size="92" transform="matrix(1 0 0 1 390.787 1771)">params: pipelines-<tspan font-size="92" x="699.806" y="0">py</tspan><tspan font-size="92" x="792.138" y="0">-</tspan><tspan font-size="92" x="820.21" y="0">old</tspan></text><path d="M0.499836 982.648C0.499836 964.893 14.8928 950.5 32.6474 950.5L1121.35 950.5C1139.11 950.5 1153.5 964.893 1153.5 982.648L1153.5 1317.35C1153.5 1335.11 1139.11 1349.5 1121.35 1349.5L32.6474 1349.5C14.8928 1349.5 0.499836 1335.11 0.499836 1317.35Z" stroke="#000000" stroke-width="6.875" stroke-miterlimit="8" fill="#99DDFF" fill-rule="evenodd" fill-opacity="0.301961"/><path d="M52.1453 1166.77 569.42 1166.77 569.42 1300.6 52.1453 1300.6Z" fill="#FFFFFF" fill-rule="evenodd"/><path d="M569.42 1166.77 1106.36 1166.77 1106.36 1300.6 569.42 1300.6Z" fill="#FFFFFF" fill-rule="evenodd"/><path d="M52.1453 1164.48 52.1453 1302.89" stroke="#99DDFF" stroke-width="4.58333" stroke-linejoin="round" stroke-miterlimit="10" fill="none" fill-rule="evenodd"/><path d="M1106.36 1164.48 1106.36 1302.89" stroke="#99DDFF" stroke-width="4.58333" stroke-linejoin="round" stroke-miterlimit="10" fill="none" fill-rule="evenodd"/><path d="M49.8537 1166.77 1108.65 1166.77" stroke="#99DDFF" stroke-width="4.58333" stroke-linejoin="round" stroke-miterlimit="10" fill="none" fill-rule="evenodd"/><path d="M49.8537 1300.6 1108.65 1300.6" stroke="#99DDFF" stroke-width="4.58333" stroke-linejoin="round" stroke-miterlimit="10" fill="none" fill-rule="evenodd"/><g clip-path="url(#clip37)"><text font-family="Calibri,Calibri_MSFontService,sans-serif" font-weight="700" font-size="73" transform="matrix(1 0 0 1 85.1453 1252)">d</text></g><text font-family="Calibri,Calibri_MSFontService,sans-serif" font-weight="700" font-size="73" transform="matrix(1 0 0 1 124.677 1252)">ataset_name</text><g clip-path="url(#clip38)"><text font-family="Calibri,Calibri_MSFontService,sans-serif" font-weight="400" font-size="73" transform="matrix(1 0 0 1 602.42 1252)">s</text></g><text font-family="Calibri,Calibri_MSFontService,sans-serif" font-weight="400" font-size="73" transform="matrix(1 0 0 1 631.066 1252)">c_mix<tspan font-size="73" x="174.167" y="0">, be1, </tspan><tspan font-size="73" x="356.354" y="0">cb</tspan><tspan font-weight="700" font-size="92" x="-405.551" y="-163">params: datasets</tspan><tspan font-weight="700" font-size="92" x="242.051" y="-163">-</tspan><tspan font-weight="700" font-size="92" x="270.124" y="-163">r</tspan></text><path d="M1370.5 982.647C1370.5 964.893 1384.89 950.5 1402.65 950.5L1972.35 950.5C1990.11 950.5 2004.5 964.893 2004.5 982.647L2004.5 1317.35C2004.5 1335.11 1990.11 1349.5 1972.35 1349.5L1402.65 1349.5C1384.89 1349.5 1370.5 1335.11 1370.5 1317.35Z" stroke="#000000" stroke-width="6.875" stroke-miterlimit="8" fill="#FFAABB" fill-rule="evenodd" fill-opacity="0.298039"/><path d="M1422.02 1166.77 1958.96 1166.77 1958.96 1300.6 1422.02 1300.6Z" fill="#FFFFFF" fill-rule="evenodd"/><path d="M1422.02 1164.48 1422.02 1302.89" stroke="#FFAABB" stroke-width="4.58333" stroke-linejoin="round" stroke-miterlimit="10" fill="none" fill-rule="evenodd"/><path d="M1958.96 1164.48 1958.96 1302.89" stroke="#FFAABB" stroke-width="4.58333" stroke-linejoin="round" stroke-miterlimit="10" fill="none" fill-rule="evenodd"/><path d="M1419.73 1166.77 1961.25 1166.77" stroke="#FFAABB" stroke-width="4.58333" stroke-linejoin="round" stroke-miterlimit="10" fill="none" fill-rule="evenodd"/><path d="M1419.73 1300.6 1961.25 1300.6" stroke="#FFAABB" stroke-width="4.58333" stroke-linejoin="round" stroke-miterlimit="10" fill="none" fill-rule="evenodd"/><g clip-path="url(#clip39)"><text font-family="Calibri,Calibri_MSFontService,sans-serif" font-weight="400" font-size="73" transform="matrix(1 0 0 1 1463.33 1252)">s</text></g><text font-family="Calibri,Calibri_MSFontService,sans-serif" font-weight="400" font-size="73" transform="matrix(1 0 0 1 1491.98 1252)">c_mix<tspan font-size="73" x="174.167" y="0">, be1, </tspan></text><g clip-path="url(#clip40)"><text font-family="Calibri,Calibri_MSFontService,sans-serif" font-weight="400" font-size="73" transform="matrix(1 0 0 1 1848.33 1252)">cb</text></g><text font-family="Calibri,Calibri_MSFontService,sans-serif" font-weight="700" font-size="92" transform="matrix(1 0 0 1 1530.4 1089)">datasets</text><path d="M2230.5 833.435C2230.5 804.2 2254.2 780.5 2283.43 780.5L2834.57 780.5C2863.8 780.5 2887.5 804.2 2887.5 833.435L2887.5 1464.57C2887.5 1493.8 2863.8 1517.5 2834.57 1517.5L2283.43 1517.5C2254.2 1517.5 2230.5 1493.8 2230.5 1464.57Z" stroke="#000000" stroke-width="6.875" stroke-miterlimit="8" fill="#FFAABB" fill-rule="evenodd" fill-opacity="0.298039"/><path d="M2281.88 997.067 2837.7 997.067 2837.7 1130.9 2281.88 1130.9Z" fill="#FFFFFF" fill-rule="evenodd"/><path d="M2281.88 994.775 2281.88 1133.19" stroke="#FFAABB" stroke-width="4.58333" stroke-linejoin="round" stroke-miterlimit="10" fill="none" fill-rule="evenodd"/><path d="M2837.7 994.775 2837.7 1133.19" stroke="#FFAABB" stroke-width="4.58333" stroke-linejoin="round" stroke-miterlimit="10" fill="none" fill-rule="evenodd"/><path d="M2279.59 997.067 2839.99 997.067" stroke="#FFAABB" stroke-width="4.58333" stroke-linejoin="round" stroke-miterlimit="10" fill="none" fill-rule="evenodd"/><path d="M2279.59 1130.9 2839.99 1130.9" stroke="#FFAABB" stroke-width="4.58333" stroke-linejoin="round" stroke-miterlimit="10" fill="none" fill-rule="evenodd"/><text font-family="Calibri,Calibri_MSFontService,sans-serif" font-weight="400" font-size="73" transform="matrix(1 0 0 1 2402.24 1083)">pipelines<tspan font-size="73" x="266.979" y="0">-</tspan>r<tspan font-weight="700" font-size="92" x="-20.0147" y="-164">methods</tspan></text><path d="M2278.21 1166.86 2837.7 1166.86 2837.7 1300.69 2278.21 1300.69Z" fill="#FFFFFF" fill-rule="evenodd"/><path d="M2278.21 1164.56 2278.21 1302.98" stroke="#FFAABB" stroke-width="4.58333" stroke-linejoin="round" stroke-miterlimit="10" fill="none" fill-rule="evenodd"/><path d="M2837.7 1164.56 2837.7 1302.98" stroke="#FFAABB" stroke-width="4.58333" stroke-linejoin="round" stroke-miterlimit="10" fill="none" fill-rule="evenodd"/><path d="M2275.92 1166.86 2839.99 1166.86" stroke="#FFAABB" stroke-width="4.58333" stroke-linejoin="round" stroke-miterlimit="10" fill="none" fill-rule="evenodd"/><path d="M2275.92 1300.69 2839.99 1300.69" stroke="#FFAABB" stroke-width="4.58333" stroke-linejoin="round" stroke-miterlimit="10" fill="none" fill-rule="evenodd"/><g clip-path="url(#clip41)"><text font-family="Calibri,Calibri_MSFontService,sans-serif" font-weight="400" font-size="73" transform="matrix(1 0 0 1 2319.52 1252)">pipelines</text></g><text font-family="Calibri,Calibri_MSFontService,sans-serif" font-weight="400" font-size="73" transform="matrix(1 0 0 1 2586.49 1252)">-<tspan font-size="73" x="22.3438" y="0">py</tspan><tspan font-size="73" x="93.5916" y="0">-</tspan></text><g clip-path="url(#clip42)"><text font-family="Calibri,Calibri_MSFontService,sans-serif" font-weight="400" font-size="73" transform="matrix(1 0 0 1 2702.43 1252)">old</text></g><path d="M2281.88 1335.12 2841.37 1335.12 2841.37 1468.95 2281.88 1468.95Z" fill="#FFFFFF" fill-rule="evenodd"/><path d="M2281.88 1332.83 2281.88 1471.24" stroke="#FFAABB" stroke-width="4.58333" stroke-linejoin="round" stroke-miterlimit="10" fill="none" fill-rule="evenodd"/><path d="M2841.37 1332.83 2841.37 1471.24" stroke="#FFAABB" stroke-width="4.58333" stroke-linejoin="round" stroke-miterlimit="10" fill="none" fill-rule="evenodd"/><path d="M2279.59 1335.12 2843.66 1335.12" stroke="#FFAABB" stroke-width="4.58333" stroke-linejoin="round" stroke-miterlimit="10" fill="none" fill-rule="evenodd"/><path d="M2279.59 1468.95 2843.66 1468.95" stroke="#FFAABB" stroke-width="4.58333" stroke-linejoin="round" stroke-miterlimit="10" fill="none" fill-rule="evenodd"/><text font-family="Calibri,Calibri_MSFontService,sans-serif" font-weight="400" font-size="73" transform="matrix(1 0 0 1 2381.34 1421)">pipelines<tspan font-size="73" x="266.979" y="0">-</tspan>py</text><path d="M3113.5 983.728C3113.5 965.929 3127.93 951.5 3145.73 951.5L3714.27 951.5C3732.07 951.5 3746.5 965.929 3746.5 983.728L3746.5 1319.27C3746.5 1337.07 3732.07 1351.5 3714.27 1351.5L3145.73 1351.5C3127.93 1351.5 3113.5 1337.07 3113.5 1319.27Z" stroke="#000000" stroke-width="6.875" stroke-miterlimit="8" fill="#FFAABB" fill-rule="evenodd" fill-opacity="0.298039"/><path d="M3164.75 1168.05 3701.69 1168.05 3701.69 1301.88 3164.75 1301.88Z" fill="#FFFFFF" fill-rule="evenodd"/><path d="M3164.75 1165.76 3164.75 1304.17" stroke="#FFAABB" stroke-width="4.58333" stroke-linejoin="round" stroke-miterlimit="10" fill="none" fill-rule="evenodd"/><path d="M3701.69 1165.76 3701.69 1304.17" stroke="#FFAABB" stroke-width="4.58333" stroke-linejoin="round" stroke-miterlimit="10" fill="none" fill-rule="evenodd"/><path d="M3162.46 1168.05 3703.98 1168.05" stroke="#FFAABB" stroke-width="4.58333" stroke-linejoin="round" stroke-miterlimit="10" fill="none" fill-rule="evenodd"/><path d="M3162.46 1301.88 3703.98 1301.88" stroke="#FFAABB" stroke-width="4.58333" stroke-linejoin="round" stroke-miterlimit="10" fill="none" fill-rule="evenodd"/><text font-family="Calibri,Calibri_MSFontService,sans-serif" font-weight="400" font-size="73" transform="matrix(1 0 0 1 3275.76 1254)">metrics<tspan font-size="73" x="221.329" y="0">-</tspan>py<tspan font-weight="700" font-size="92" x="16.5459" y="-164">metrics</tspan></text><path d="M3973.5 982.647C3973.5 964.893 3987.89 950.5 4005.65 950.5L4814.35 950.5C4832.11 950.5 4846.5 964.893 4846.5 982.647L4846.5 1317.35C4846.5 1335.11 4832.11 1349.5 4814.35 1349.5L4005.65 1349.5C3987.89 1349.5 3973.5 1335.11 3973.5 1317.35Z" stroke="#000000" stroke-width="6.875" stroke-miterlimit="8" fill="#44BB99" fill-rule="evenodd" fill-opacity="0.298039"/><path d="M4140.82 1166.28 4677.76 1166.28 4677.76 1300.11 4140.82 1300.11Z" fill="#FFFFFF" fill-rule="evenodd"/><path d="M4140.82 1163.99 4140.82 1302.4" stroke="#44BB99" stroke-width="4.58333" stroke-linejoin="round" stroke-miterlimit="10" fill="none" fill-rule="evenodd"/><path d="M4677.76 1163.99 4677.76 1302.4" stroke="#44BB99" stroke-width="4.58333" stroke-linejoin="round" stroke-miterlimit="10" fill="none" fill-rule="evenodd"/><path d="M4138.53 1166.28 4680.05 1166.28" stroke="#44BB99" stroke-width="4.58333" stroke-linejoin="round" stroke-miterlimit="10" fill="none" fill-rule="evenodd"/><path d="M4138.53 1300.11 4680.05 1300.11" stroke="#44BB99" stroke-width="4.58333" stroke-linejoin="round" stroke-miterlimit="10" fill="none" fill-rule="evenodd"/><text font-family="Calibri,Calibri_MSFontService,sans-serif" font-weight="400" font-size="73" transform="matrix(1 0 0 1 4314.66 1252)">report<tspan font-weight="700" font-size="92" x="-242.71" y="-163">metrics</tspan><tspan font-weight="700" font-size="92" x="39.1187" y="-163">-</tspan><tspan font-weight="700" font-size="92" x="67.1919" y="-163">collectors</tspan></text><path d="M1959.5 1232.21 2255.83 1232.29 2255.83 1236.87 1959.5 1236.79ZM2251.25 1220.83 2278.75 1234.59 2251.24 1248.33Z"/><path d="M2839.18 1062.31 3146.19 1157.8 3144.83 1162.18 2837.82 1066.69ZM3145.22 1145.5 3167.39 1166.8 3137.05 1171.76Z"/><path d="M0.00406882-2.29166 302.31-1.75492 302.301 2.8284-0.00406882 2.29166ZM297.746-13.2214 325.222 0.577428 297.697 14.2786Z" transform="matrix(1 0 0 -1 2838.5 1234.08)"/><path d="M0.69508-2.18371 301.779 93.6519 300.389 98.0194-0.69508 2.18371ZM300.887 81.3432 322.921 102.786 292.546 107.548Z" transform="matrix(1 0 0 -1 2842.5 1402.29)"/><path d="M0.00352321-2.29166 18.3368-2.26348 18.3298 2.31985-0.00352321 2.29166ZM32.0868-2.24234 50.4201-2.21415 50.4131 2.36917 32.0798 2.34099ZM64.1701-2.19301 82.5034-2.16483 82.4964 2.4185 64.1631 2.39031ZM96.2534-2.14369 114.587-2.1155 114.58 2.46782 96.2464 2.43964ZM128.337-2.09436 146.67-2.06618 146.663 2.51715 128.33 2.48896ZM160.42-2.04504 178.753-2.01685 178.746 2.56647 160.413 2.53829ZM192.503-1.99571 210.837-1.96753 210.83 2.6158 192.496 2.58761ZM224.587-1.94639 242.92-1.9182 242.913 2.66512 224.58 2.63694ZM256.67-1.89706 275.003-1.86888 274.996 2.71445 256.663 2.68626ZM288.753-1.84774 296.335-1.83608 296.328 2.74725 288.746 2.73559ZM291.77-13.3014 319.249 0.490814 291.728 14.1985Z" fill="#7F7F7F" transform="matrix(1 0 0 -1 1102.5 1236.99)"/><path d="M1540.52 1847.34 1559.07 1815.71 1563.03 1818.03 1544.48 1849.66ZM1566.03 1803.85 1571.9 1793.83 1584.83 1772.34 1588.76 1774.71 1575.84 1796.18 1575.85 1796.16 1569.98 1806.17ZM1591.92 1760.56 1603.73 1740.93 1611.04 1729.23 1614.93 1731.66 1607.63 1743.34 1607.65 1743.31 1595.85 1762.92ZM1618.33 1717.57 1620 1714.9 1636.52 1689.24 1638.23 1686.69 1642.04 1689.24 1640.34 1691.78 1640.36 1691.74 1623.86 1717.37 1623.88 1717.34 1622.22 1720ZM1645.88 1675.27 1653.42 1664.02 1666.69 1645.02 1670.45 1647.65 1657.19 1666.63 1657.22 1666.59 1649.69 1677.82ZM1674.75 1633.81 1688.49 1615.24 1696.85 1604.49 1700.47 1607.3 1692.12 1618.03 1692.15 1617.99 1678.44 1636.54ZM1705.3 1593.63 1706.72 1591.81 1725.64 1569.13 1728.95 1565.42 1732.37 1568.47 1729.08 1572.15 1729.13 1572.09 1710.26 1594.72 1710.31 1594.66 1708.91 1596.45ZM1738.12 1555.17 1745.13 1547.32 1763.33 1528.44 1766.63 1531.62 1748.46 1550.47 1748.52 1550.4 1741.53 1558.22ZM1773.28 1518.8 1786.27 1506.43 1800.52 1494.11 1803.52 1497.58 1789.31 1509.86 1789.39 1509.78 1776.44 1522.12ZM1811.12 1485.19 1830.69 1469.85 1840.4 1462.95 1843.05 1466.69 1833.39 1473.56 1833.48 1473.49 1813.95 1488.8ZM1851.92 1455.29 1855.21 1453.13 1868.34 1445.09 1882.08 1437.3 1883.62 1436.48 1885.78 1440.53 1884.27 1441.33 1884.32 1441.31 1870.63 1449.06 1870.7 1449.02 1857.63 1457.02 1857.69 1456.98 1854.43 1459.12ZM1895.76 1430.02 1896.32 1429.71 1911 1422.38 1926.04 1415.23 1928.88 1413.95 1930.77 1418.13 1927.94 1419.4 1927.98 1419.38 1912.98 1426.51 1913.02 1426.49 1898.4 1433.8 1898.45 1433.77 1897.91 1434.06ZM1941.41 1408.29 1941.46 1408.27 1973.08 1395 1975.37 1394.12 1977.01 1398.4 1974.76 1399.27 1974.82 1399.24 1943.26 1412.49 1943.32 1412.46 1943.3 1412.47ZM1988.21 1389.2 2005.46 1382.6 2022.65 1376.47 2024.19 1380.79 2007.02 1386.91 2007.07 1386.89 1989.85 1393.48ZM2035.61 1371.86 2038.13 1370.96 2070.43 1360.23 2071.88 1364.58 2039.6 1375.3 2039.64 1375.28 2037.14 1376.17ZM2083.59 1356.1 2102.83 1350.06 2118.68 1345.35 2119.98 1349.74 2104.15 1354.45 2104.19 1354.44 2084.96 1360.47ZM2131.86 1341.43 2133.98 1340.8 2149.12 1336.42 2163.81 1332.23 2167.13 1331.3 2168.37 1335.71 2165.06 1336.64 2165.07 1336.64 2150.38 1340.83 2150.39 1340.83 2135.26 1345.2 2135.28 1345.2 2133.16 1345.83ZM2180.38 1327.59 2191.83 1324.42 2205.08 1320.79 2215.75 1317.89 2216.95 1322.31 2206.29 1325.21 2193.04 1328.84 2193.05 1328.83 2181.6 1332.01ZM2228.99 1314.22 2229.64 1314.04 2240.9 1310.98 2240.89 1310.98 2251.45 1308.04 2251.42 1308.05 2255.86 1306.75 2257.15 1311.15 2252.69 1312.45 2242.11 1315.4 2230.85 1318.46 2230.86 1318.46 2230.22 1318.64ZM2248.24 1297.04 2278.5 1302.5 2255.98 1323.43Z" fill="#7F7F7F"/><path d="M2121.24 1848.09 2127.78 1812.01 2132.29 1812.83 2125.75 1848.91ZM2130.29 1798.48 2134.81 1774.07 2137.09 1762.43 2141.59 1763.31 2139.31 1774.94 2139.32 1774.92 2134.79 1799.32ZM2139.74 1748.94 2141.88 1738.05 2145.51 1720.53 2147.13 1712.98 2151.61 1713.94 2149.99 1721.48 2149.99 1721.46 2146.37 1738.96 2146.37 1738.94 2144.24 1749.82ZM2150.06 1699.52 2153.02 1686.54 2156.96 1670.26 2158.61 1663.8 2163.05 1664.94 2161.41 1671.38 2161.41 1671.35 2157.48 1687.6 2157.48 1687.57 2154.53 1700.54ZM2162.1 1650.46 2165.17 1639.31 2169.5 1624.76 2172.6 1615.22 2176.96 1616.64 2173.87 1626.15 2173.88 1626.09 2169.57 1640.59 2169.58 1640.55 2166.52 1651.68ZM2177.14 1602.18 2178.73 1597.76 2183.58 1585.36 2188.88 1573.68 2191.74 1568.23 2195.8 1570.37 2192.97 1575.75 2193.02 1575.63 2187.77 1587.2 2187.82 1587.08 2183.01 1599.4 2183.03 1599.34 2181.46 1603.72ZM2198.52 1556.14 2200.87 1552.15 2207.5 1542.25 2214.31 1532.98 2219.91 1526.01 2223.48 1528.88 2217.91 1535.81 2217.97 1535.73 2211.22 1544.92 2211.28 1544.84 2204.72 1554.65 2204.79 1554.54 2202.46 1558.47ZM2228.97 1515.44 2235.41 1508.54 2242.32 1501.5 2249.05 1495.02 2255.04 1489.45 2258.16 1492.8 2252.19 1498.36 2252.21 1498.34 2245.53 1504.78 2245.57 1504.73 2238.7 1511.73 2238.74 1511.69 2232.32 1518.57ZM2251.91 1476.85 2281.5 1468.5 2270.42 1497.18Z" fill="#7F7F7F"/><path d="M-2.24179 378.524 5.36671 342.656 9.85028 343.607 2.24179 379.475ZM8.29177 329.207 13.6387 304.687 16.2375 293.386 20.7042 294.413 18.1084 305.701 18.1141 305.676 12.7699 330.184ZM19.3191 279.986 21.8948 268.785 26.1506 251.261 27.9124 244.291 32.356 245.414 30.5968 252.374 30.6019 252.353 26.3519 269.853 26.3584 269.826 23.7858 281.013ZM31.3384 230.939 34.978 217.392 39.5503 201.17 41.2476 195.564 45.6342 196.892 43.9433 202.477 43.9557 202.434 39.3932 218.622 39.4007 218.595 35.7647 232.128ZM45.2986 182.382 49.2028 170.269 54.2848 155.776 57.3757 147.644 61.66 149.272 58.5796 157.377 58.6001 157.321 53.5376 171.758 53.5562 171.703 49.661 183.788ZM62.5092 134.813 65.027 128.764 70.7593 116.418 76.9491 104.733 78.8734 101.633 82.7675 104.05 80.8846 107.084 80.9626 106.948 74.8376 118.51 74.8911 118.403 69.2036 130.653 69.2407 130.568 66.7406 136.574ZM86.3783 89.9787 91.0316 83.2617 98.7948 73.4157 106.795 64.1553 109.563 61.1941 112.912 64.324 110.174 67.2524 110.234 67.1857 102.297 76.3732 102.362 76.2939 94.6746 86.0439 94.7588 85.93 90.1458 92.5887ZM119.218 51.2634 123.237 47.3352 131.478 39.7861 139.586 32.8094 146.816 26.8521 149.731 30.3893 142.52 36.3311 142.557 36.2996 134.495 43.2371 134.548 43.1898 126.36 50.6898 126.414 50.639 122.421 54.5414ZM157.66 18.2897 165.478 12.2229 168.288 15.8438 160.47 21.9106ZM154.839 5.96956 185 0 171.679 27.7104Z" fill="#7F7F7F" transform="matrix(1 0 0 -1 2096.5 997.5)"/><path d="M0.69508-2.18371 301.779 93.6519 300.389 98.0194-0.69508 2.18371ZM300.887 81.3432 322.921 102.786 292.546 107.548Z" transform="matrix(1 0 0 -1 1959.5 1167.29)"/><path d="M1958.2 1297.32 2259.28 1393.15 2257.89 1397.52 1956.81 1301.68ZM2258.39 1380.84 2280.42 1402.29 2250.05 1407.05Z"/><path d="M3702.5 1231.21 4118.71 1231.21 4118.71 1235.79 3702.5 1235.79ZM4114.13 1219.75 4141.63 1233.5 4114.13 1247.25Z"/></g></svg>